<svg width="800" height="600" xmlns="http://www.w3.org/2000/svg">
 <g>
  <title>Tesla Model 3 PTC Heater</title>
  <rect fill="#f0f0f0" id="canvas_background" height="602" width="802" y="-1" x="-1"/>
  <g display="none" overflow="visible" y="0" x="0" height="100%" width="100%" id="canvasGrid">
   <rect fill="url(#gridpattern)" stroke-width="0" y="0" x="0" height="100%" width="100%"/>
  </g>
 </g>
 <g>
  <title>Layer 1</title>
  <rect id="svg_1" height="388" width="566" y="106" x="117" stroke="#000" fill="#e0e0e0"/>
  <rect id="svg_2" height="341" width="518" y="129" x="141" stroke="#000" fill="#cccccc"/>
  <line stroke-linecap="null" stroke-linejoin="null" id="svg_3" y2="129" x2="198" y1="470" x1="198" stroke="#666666" fill="none" stroke-width="2"/>
  <line stroke-linecap="null" stroke-linejoin="null" id="svg_4" y2="129" x2="252" y1="470" x1="252" stroke="#666666" fill="none" stroke-width="2"/>
  <line stroke-linecap="null" stroke-linejoin="null" id="svg_5" y2="129" x2="306" y1="470" x1="306" stroke="#666666" fill="none" stroke-width="2"/>
  <line stroke-linecap="null" stroke-linejoin="null" id="svg_6" y2="129" x2="360" y1="470" x1="360" stroke="#666666" fill="none" stroke-width="2"/>
  <line stroke-linecap="null" stroke-linejoin="null" id="svg_7" y2="129" x2="414" y1="470" x1="414" stroke="#666666" fill="none" stroke-width="2"/>
  <line stroke-linecap="null" stroke-linejoin="null" id="svg_8" y2="129" x2="468" y1="470" x1="468" stroke="#666666" fill="none" stroke-width="2"/>
  <line stroke-linecap="null" stroke-linejoin="null" id="svg_9" y2="129" x2="522" y1="470" x1="522" stroke="#666666" fill="none" stroke-width="2"/>
  <line stroke-linecap="null" stroke-linejoin="null" id="svg_10" y2="129" x2="576" y1="470" x1="576" stroke="#666666" fill="none" stroke-width="2"/>
  <rect id="svg_11" height="84" width="138" y="152" x="50" stroke="#000" fill="#333333"/>
  <rect id="svg_12" height="60" width="40" y="164" x="20" stroke="#000" fill="#ff9900"/>
  <text xml:space="preserve" text-anchor="start" font-family="Helvetica, Arial, sans-serif" font-size="24" id="svg_13" y="187" x="561" stroke-width="0" stroke="#000" fill="#000000">1088218-00-I</text>
  <text xml:space="preserve" text-anchor="middle" font-family="Helvetica, Arial, sans-serif" font-size="30" id="svg_14" y="300" x="400" stroke-width="0" stroke="#000" fill="#333333" font-weight="bold" opacity="0.3">PTC HEATER</text>
  <text xml:space="preserve" text-anchor="middle" font-family="Helvetica, Arial, sans-serif" font-size="20" id="svg_15" y="330" x="400" stroke-width="0" stroke="#000" fill="#333333" opacity="0.3">High Voltage</text>
  <path stroke="#000" id="svg_16" d="m400,220l15,-26l-30,0l15,26z" stroke-width="0" fill="#ffcc00"/>
  <text xml:space="preserve" text-anchor="middle" font-family="Helvetica, Arial, sans-serif" font-size="24" id="svg_17" y="215" x="400" stroke-width="0" stroke="#000" fill="#000000">⚡</text>
 </g>
</svg>
